<?xml version="1.0" encoding="utf-8"?>

<svg xmlns="http://www.w3.org/2000/svg" xmlns:xlink="http://www.w3.org/1999/xlink" width="220px" 
version="1.1" id="Layer_1" x="0px" y="0px" viewBox="0 0 222.3 30" enable-background="new 0 0 222.3 30" xml:space="preserve" height="75px"><g>
	<defs>
		<path id="SVGID_1_" d="M196.2-18.6L196.2-18.6C196.2-18.6,196.2-18.6,196.2-18.6 M196.7-18.7c-0.3,0-0.5,0.1-0.5,0.1l-8.7,9.9
			h-22.5v52.5h13.4c0.5,0,1.1,0,1.6,0h0c7.7-0.2,15.5-3.2,15.5-12.8c0-11.7-19.1-16.7-25.7-13.5l30.2-36.1c-0.7-0.2-1.4-0.2-2-0.2
			C197.5-18.7,197.1-18.7,196.7-18.7"/>
	</defs>
	<clipPath id="SVGID_2_">
		<use xlink:href="#SVGID_1_"  overflow="visible"/>
	</clipPath>
	
		<linearGradient id="SVGID_3_" gradientUnits="userSpaceOnUse" x1="-184.2705" y1="624.8267" x2="-183.8829" y2="624.8267" gradientTransform="matrix(691.9579 39.4105 39.4105 -691.9579 102829.3594 439615.125)">
		<stop  offset="0" style="stop-color:#F85B57"/>
		<stop  offset="1" style="stop-color:#FF6D59"/>
	</linearGradient>
	<polygon clip-path="url(#SVGID_2_)" fill="url(#SVGID_3_)" points="165.2,-20.7 203.6,-18.5 200,45.9 161.5,43.7 	"/>
</g>
<path fill-rule="evenodd" clip-rule="evenodd" d="M207.2-21c1.9,0.6,2.9,1,4.2,1.9L187.7,9.2c6.5,4.3,13.2,15.1,9.6,23.8
	c1.8-11.9-10.2-20.8-17.2-21.9L207.2-21z"/>
<g>
	<defs>
		<path id="SVGID_4_" d="M193.1,8.6c6,3.9,13.2,16.9,6.7,27c6.9-6.5,4.2-20.4,0.1-27l18.3-22c-0.8-1.3-1.5-2.2-3-3.5L193.1,8.6z"/>
	</defs>
	<clipPath id="SVGID_5_">
		<use xlink:href="#SVGID_4_"  overflow="visible"/>
	</clipPath>
	
		<linearGradient id="SVGID_6_" gradientUnits="userSpaceOnUse" x1="-184.2705" y1="624.8161" x2="-183.8829" y2="624.8161" gradientTransform="matrix(691.9579 39.4105 39.4105 -691.9579 102830.0313 439603.3125)">
		<stop  offset="0" style="stop-color:#F65656"/>
		<stop  offset="1" style="stop-color:#FF6D59"/>
	</linearGradient>
	<polygon clip-path="url(#SVGID_5_)" fill="url(#SVGID_6_)" points="193.2,-18.2 221.2,-16.6 218.1,37.1 190.1,35.5 	"/>
</g>
<text transform="matrix(1 0 0 1 5.8332 46.6334)"><tspan x="0" y="0" font-family="'Giorgio'" font-size="15.1323" letter-spacing="3">k</tspan><tspan x="10.6" y="0" font-family="'Giorgio'" font-size="15.1323" letter-spacing="3">o</tspan><tspan x="22.9" y="0" font-family="'Giorgio'" font-size="15.1323" letter-spacing="3">to</tspan><tspan x="44.7" y="0" font-family="'Giorgio'" font-size="15.1323" letter-spacing="3">b</tspan><tspan x="57.6" y="0" font-family="'Giorgio'" font-size="15.1323" letter-spacing="3">at</tspan><tspan x="79.7" y="0" font-family="'Giorgio'" font-size="15.1323">i</tspan></text>
<g>
	<defs>
		<path id="SVGID_7_" d="M14.2,30.4h3.7v-3.7h-3.7V30.4z M21.5,30.4h3.7v-3.7h-3.7V30.4z M48.9,22.9L48.9,22.9L48.9,22.9z M37.9-3
			H38H37.9 M37.8-6.7L37.8-6.7c-0.9,0-1.8,0.2-2.7,0.5c-0.9,0.4-1.7,0.9-2.4,1.5C32-4,31.5-3.2,31.1-2.3c-0.4,0.9-0.6,1.8-0.6,2.8
			v2.1v11.2v2.1c0,1-0.4,1.8-1.1,2.4c-0.7,0.7-1.6,1.1-2.6,1.1H12c-0.5,0-1-0.1-1.4-0.3c-0.5-0.2-0.9-0.4-1.2-0.8
			c-0.7-0.6-1.1-1.4-1.1-2.4V0.4c0-0.9,0.4-1.7,1.1-2.4C10-2.6,10.9-3,12-3h3.7v-3.7H12c-1,0-1.9,0.2-2.8,0.5
			C8.3-5.8,7.5-5.3,6.8-4.7C6.1-4,5.6-3.2,5.2-2.3C5-1.9,4.9-1.4,4.8-1c0,0.3-0.1,0.5-0.1,0.7c0,0.2,0,0.5,0,0.7v15.4
			c0,1,0.2,1.9,0.6,2.7c0.4,0.9,0.9,1.6,1.6,2.3c0.6,0.6,1.4,1.1,2.4,1.5c0.9,0.4,1.9,0.5,2.9,0.5h14.8c0.5,0,1,0,1.5-0.1
			c0.4-0.1,0.9-0.2,1.4-0.4c0.9-0.3,1.6-0.8,2.3-1.5c0.7-0.6,1.2-1.4,1.6-2.3c0.4-0.9,0.6-1.8,0.6-2.8v-2.1V2.6V0.4
			c0-0.4,0.1-0.8,0.3-1.3c0.2-0.4,0.4-0.8,0.8-1.1c0.7-0.7,1.6-1,2.7-1c0.5,0,1,0.1,1.4,0.3c0.5,0.2,0.9,0.4,1.2,0.8
			c0.7,0.7,1,1.5,1,2.4v5.8v5.6v4c0,1,0.2,1.9,0.6,2.7c0.4,0.8,0.9,1.6,1.6,2.3c0.6,0.6,1.4,1.1,2.4,1.5c0.9,0.3,1.9,0.5,2.8,0.5
			v-3.7c-0.5,0-0.9-0.1-1.4-0.3c-0.5-0.2-0.9-0.4-1.2-0.8c-0.7-0.7-1-1.5-1-2.4v-4V6.3V0.4c0-0.5,0-0.9-0.1-1.3
			C45.1-1.2,45-1.5,45-1.6c0-0.2-0.1-0.4-0.3-0.7c-0.4-0.8-0.9-1.6-1.5-2.2c-0.7-0.6-1.5-1.2-2.4-1.6C39.7-6.5,38.8-6.7,37.8-6.7
			L37.8-6.7z"/>
	</defs>
	<clipPath id="SVGID_8_">
		<use xlink:href="#SVGID_7_"  overflow="visible"/>
	</clipPath>
	
		<linearGradient id="SVGID_9_" gradientUnits="userSpaceOnUse" x1="-184.2705" y1="624.8453" x2="-183.8829" y2="624.8453" gradientTransform="matrix(691.9579 39.4105 39.4105 -691.9579 102828.1484 439636.0938)">
		<stop  offset="0" style="stop-color:#F85B57"/>
		<stop  offset="1" style="stop-color:#FF6D59"/>
	</linearGradient>
	<polygon clip-path="url(#SVGID_8_)" fill="url(#SVGID_9_)" points="4.7,-9.2 51.1,-6.6 48.8,32.9 2.5,30.2 	"/>
</g>
<g>
	<defs>
		<path id="SVGID_10_" d="M48.9,23H49H48.9z M52.6-6.6v22.5c0,0.4-0.1,0.9-0.2,1.3c-0.2,0.4-0.4,0.8-0.8,1.1c-0.7,0.7-1.6,1-2.7,1
			H49h-0.1V23c1,0,1.9-0.2,2.8-0.5c0.9-0.4,1.7-0.9,2.4-1.5c0.7-0.6,1.2-1.4,1.6-2.3c0.4-0.9,0.6-1.8,0.6-2.8V-6.6H52.6z M48.3-10
			H52v-3.7h-3.7V-10z M55.9-10h3.7v-3.7h-3.7V-10z"/>
	</defs>
	<clipPath id="SVGID_11_">
		<use xlink:href="#SVGID_10_"  overflow="visible"/>
	</clipPath>
	
		<linearGradient id="SVGID_12_" gradientUnits="userSpaceOnUse" x1="-184.2705" y1="624.8252" x2="-183.8829" y2="624.8252" gradientTransform="matrix(691.9579 39.4105 39.4105 -691.9579 102829.4375 439613.4375)">
		<stop  offset="0" style="stop-color:#F85B57"/>
		<stop  offset="1" style="stop-color:#FF6D59"/>
	</linearGradient>
	<polygon clip-path="url(#SVGID_11_)" fill="url(#SVGID_12_)" points="48.4,-14.3 61.6,-13.6 59.5,23.6 46.2,22.9 	"/>
</g>
<g>
	<defs>
		<path id="SVGID_13_" d="M63.8-14.1v29.9c0,1,0.2,1.9,0.6,2.8c0.4,0.9,0.9,1.7,1.6,2.3c0.7,0.6,1.5,1.1,2.4,1.5
			c0.9,0.4,1.9,0.5,2.8,0.5v-3.7c-1,0-1.9-0.3-2.6-1c-0.3-0.3-0.6-0.7-0.8-1.1c-0.1-0.2-0.2-0.5-0.2-0.6c0-0.2,0-0.4,0-0.7v-29.9
			H63.8z"/>
	</defs>
	<clipPath id="SVGID_14_">
		<use xlink:href="#SVGID_13_"  overflow="visible"/>
	</clipPath>
	
		<linearGradient id="SVGID_15_" gradientUnits="userSpaceOnUse" x1="-184.2705" y1="624.8226" x2="-183.8829" y2="624.8226" gradientTransform="matrix(691.9579 39.4105 39.4105 -691.9579 102829.5938 439610.7188)">
		<stop  offset="0" style="stop-color:#F85B57"/>
		<stop  offset="1" style="stop-color:#FF6D59"/>
	</linearGradient>
	<polygon clip-path="url(#SVGID_14_)" fill="url(#SVGID_15_)" points="63.8,-14.5 73.3,-13.9 71.2,23.4 61.7,22.8 	"/>
</g>
<g>
	<defs>
		<path id="SVGID_16_" d="M74.8,30.4h3.7v-3.7h-3.7V30.4z M71.1,23h0.1H71.1z M74.8-6.6v22.5c0,0.4-0.1,0.9-0.2,1.3
			c-0.2,0.4-0.4,0.8-0.8,1.1c-0.7,0.7-1.6,1-2.7,1h0.1h-0.1V23c1,0,1.9-0.2,2.8-0.5c0.9-0.4,1.7-0.9,2.4-1.5
			c0.7-0.6,1.2-1.4,1.6-2.3c0.4-0.9,0.6-1.8,0.6-2.8V-6.6H74.8z"/>
	</defs>
	<clipPath id="SVGID_17_">
		<use xlink:href="#SVGID_16_"  overflow="visible"/>
	</clipPath>
	
		<linearGradient id="SVGID_18_" gradientUnits="userSpaceOnUse" x1="-184.2705" y1="624.8386" x2="-183.8829" y2="624.8386" gradientTransform="matrix(691.9579 39.4105 39.4105 -691.9579 102828.5625 439628.7813)">
		<stop  offset="0" style="stop-color:#F85B57"/>
		<stop  offset="1" style="stop-color:#FF6D59"/>
	</linearGradient>
	<polygon clip-path="url(#SVGID_17_)" fill="url(#SVGID_18_)" points="71.2,-7 80.6,-6.5 78.5,30.8 69,30.3 	"/>
</g>
<g>
	<defs>
		<path id="SVGID_19_" d="M90.6,18.2c-0.3-0.3-0.6-0.7-0.8-1.1c-0.2-0.4-0.3-0.8-0.3-1.3V0.7c0-0.9,0.3-1.7,1-2.4
			c0.3-0.4,0.7-0.6,1.2-0.8c0.5-0.2,0.9-0.2,1.4-0.2h14.7c1,0,1.9,0.3,2.6,1c0.3,0.3,0.6,0.7,0.8,1.1c0.2,0.4,0.2,0.8,0.2,1.3v0.2
			v3.6v11.3c0,0.9-0.3,1.7-1,2.4c-0.4,0.3-0.8,0.6-1.3,0.8c-0.5,0.2-0.9,0.3-1.4,0.3H93.2C92.2,19.3,91.4,18.9,90.6,18.2 M93.2-6.4
			c-1,0-2,0.2-2.8,0.5c-0.9,0.4-1.7,0.9-2.4,1.5c-0.7,0.7-1.2,1.4-1.6,2.3c-0.4,0.8-0.6,1.7-0.6,2.7v15.2c0,0.9,0.2,1.8,0.6,2.7
			c0.4,0.9,0.9,1.7,1.6,2.3c0.7,0.6,1.5,1.1,2.3,1.5c0.8,0.4,1.8,0.5,2.8,0.5h14.7l1-0.1l0.9-0.2c0.6-0.2,1.2-0.4,1.7-0.7v1.2
			c0,0.9-0.3,1.7-1,2.4c-0.4,0.3-0.8,0.5-1.2,0.7c-0.5,0.1-3.5,0.2-9.2,0.2V30c6.2,0.1,9.7,0,10.6-0.4c0.9-0.4,1.7-0.9,2.3-1.5
			c0.7-0.6,1.2-1.4,1.6-2.2c0.4-0.9,0.6-1.8,0.6-2.7V22l0.9,0.4c0.2,0.1,0.4,0.1,0.5,0.2c0.1,0,0.3,0.1,0.4,0.1
			c0.6,0.2,1.2,0.2,1.9,0.2v-3.7c-1,0-1.9-0.3-2.6-1c-0.3-0.3-0.6-0.7-0.8-1c-0.2-0.4-0.3-0.8-0.3-1.3V4.5V0.9V0.7
			c0-0.9-0.2-1.9-0.6-2.8c-0.4-0.9-0.9-1.6-1.6-2.2c-0.7-0.7-1.5-1.2-2.4-1.5c-0.5-0.2-0.9-0.3-1.3-0.4c-0.4-0.1-0.9-0.1-1.4-0.1
			H93.2z"/>
	</defs>
	<clipPath id="SVGID_20_">
		<use xlink:href="#SVGID_19_"  overflow="visible"/>
	</clipPath>
	
		<linearGradient id="SVGID_21_" gradientUnits="userSpaceOnUse" x1="-184.2705" y1="624.8348" x2="-183.8829" y2="624.8348" gradientTransform="matrix(691.9579 39.4105 39.4105 -691.9579 102828.8047 439624.5625)">
		<stop  offset="0" style="stop-color:#F85B57"/>
		<stop  offset="1" style="stop-color:#FF6D59"/>
	</linearGradient>
	<polygon clip-path="url(#SVGID_20_)" fill="url(#SVGID_21_)" points="86,-8.3 121,-6.3 118.8,32 83.8,30 	"/>
</g>
<g>
	<defs>
		<path id="SVGID_22_" d="M129.7,22.9L129.7,22.9L129.7,22.9z M122.4-6.7v22.5c0,0.9-0.4,1.7-1.1,2.4c-0.7,0.7-1.6,1-2.6,1h0.1h-0.1
			v3.7c1,0,1.9-0.2,2.8-0.5c0.9-0.4,1.7-0.9,2.4-1.5l0.4-0.4l0.4,0.4c0.6,0.6,1.4,1.1,2.3,1.5c0.9,0.4,1.9,0.6,2.9,0.6v-3.7
			c-1.1,0-2-0.3-2.6-1c-0.7-0.7-1.1-1.5-1.1-2.4V-6.7H122.4z M118.7-10h3.7v-3.7h-3.7V-10z M125.8-10h3.7v-3.7h-3.7V-10z"/>
	</defs>
	<clipPath id="SVGID_23_">
		<use xlink:href="#SVGID_22_"  overflow="visible"/>
	</clipPath>
	
		<linearGradient id="SVGID_24_" gradientUnits="userSpaceOnUse" x1="-184.2705" y1="624.8161" x2="-183.8829" y2="624.8161" gradientTransform="matrix(691.9579 39.4105 39.4105 -691.9579 102830.0234 439603.125)">
		<stop  offset="0" style="stop-color:#F85B57"/>
		<stop  offset="1" style="stop-color:#FF6D59"/>
	</linearGradient>
	<polygon clip-path="url(#SVGID_23_)" fill="url(#SVGID_24_)" points="118.7,-14.4 131.9,-13.6 129.8,23.6 116.6,22.8 	"/>
</g>
<g>
	<defs>
		<path id="SVGID_25_" d="M140.9-2.9L140.9-2.9 M140.9-6.6c-0.3,0-0.5,0-0.7,0c-0.2,0-0.5,0.1-0.7,0.1c-0.5,0.1-1,0.2-1.4,0.4
			c-1,0.4-1.8,0.9-2.5,1.6c-0.7,0.6-1.2,1.4-1.5,2.2s-0.5,1.8-0.5,2.7v3.2v1.9v1.8h18.5c1.1,0,2,0.3,2.6,1c0.3,0.3,0.6,0.7,0.8,1.1
			c0.2,0.4,0.3,0.8,0.3,1.3v5c0,0.2,0,0.5-0.1,0.7c-0.1,0.2-0.1,0.4-0.2,0.6c-0.2,0.4-0.5,0.8-0.8,1c-0.3,0.3-0.7,0.6-1.2,0.8
			c-0.5,0.2-0.9,0.3-1.4,0.3h-22.2v3.7h22.2c1,0,2-0.2,2.9-0.6c0.9-0.4,1.7-0.9,2.3-1.5c0.8-0.7,1.3-1.5,1.6-2.3
			c0.2-0.3,0.2-0.5,0.3-0.7c0-0.1,0.1-0.4,0.2-0.8c0.1-0.4,0.1-0.8,0.1-1.3v-5c0-1-0.2-1.9-0.6-2.8c-0.4-0.9-0.9-1.6-1.6-2.3
			c-0.4-0.4-0.8-0.7-1.1-0.9c-0.4-0.3-0.8-0.5-1.3-0.7c-0.9-0.4-1.8-0.6-2.8-0.6h-14.8V0.5l0-0.6l0.2-0.7c0.1-0.2,0.3-0.4,0.4-0.6
			c0.2-0.2,0.3-0.4,0.4-0.5c0.7-0.7,1.6-1,2.6-1h13.9v-3.7H140.9z"/>
	</defs>
	<clipPath id="SVGID_26_">
		<use xlink:href="#SVGID_25_"  overflow="visible"/>
	</clipPath>
	
		<linearGradient id="SVGID_27_" gradientUnits="userSpaceOnUse" x1="-184.2705" y1="624.822" x2="-183.8829" y2="624.822" gradientTransform="matrix(691.9579 39.4105 39.4105 -691.9579 102829.6563 439609.5938)">
		<stop  offset="0" style="stop-color:#F85B57"/>
		<stop  offset="1" style="stop-color:#FF6D59"/>
	</linearGradient>
	<polygon clip-path="url(#SVGID_26_)" fill="url(#SVGID_27_)" points="129.8,-8.3 161,-6.5 159.2,24.6 128.1,22.8 	"/>
</g>
</svg>
